<svg xmlns="http://www.w3.org/2000/svg" viewBox="0 0 800 1000" role="img" aria-label="Wimbledon Women's Championship Legend Land preview">
  <defs>
    <linearGradient id="sky" x1="0" y1="0" x2="0" y2="1">
      <stop offset="0%" stop-color="#2a1538"/>
      <stop offset="45%" stop-color="#0b1221"/>
      <stop offset="100%" stop-color="#070d18"/>
    </linearGradient>
    <linearGradient id="gold" x1="0" y1="0" x2="1" y2="1">
      <stop offset="0%" stop-color="#f0c75e"/>
      <stop offset="100%" stop-color="#d4af37"/>
    </linearGradient>
    <radialGradient id="glow" cx="50%" cy="42%" r="45%">
      <stop offset="0%" stop-color="#8b5cf6" stop-opacity="0.28"/>
      <stop offset="100%" stop-color="#8b5cf6" stop-opacity="0"/>
    </radialGradient>
  </defs>
  <rect width="800" height="1000" fill="url(#sky)"/>
  <rect width="800" height="1000" fill="url(#glow)"/>
  <g stroke="#8b5cf6" stroke-opacity="0.14" stroke-width="1">
    <path d="M80 180 H720 M80 260 H720 M80 340 H720 M80 420 H720 M80 500 H720 M80 580 H720 M80 660 H720 M80 740 H720"/>
    <path d="M160 140 V820 M240 140 V820 M320 140 V820 M400 140 V820 M480 140 V820 M560 140 V820 M640 140 V820"/>
  </g>
  <rect x="90" y="160" width="620" height="620" rx="18" fill="#141f35" stroke="#d4af37" stroke-opacity="0.45" stroke-width="2"/>
  <rect x="110" y="180" width="580" height="580" rx="12" fill="#0b1221" stroke="#8b5cf6" stroke-opacity="0.4" stroke-width="1.5"/>
  <g fill="none" stroke="#40916c" stroke-width="2.5" stroke-linecap="round" stroke-opacity="0.8">
    <path d="M560 640 C500 560, 460 500, 400 440 C360 400, 320 360, 280 300 C250 260, 230 220, 210 190"/>
    <path d="M580 700 C500 650, 440 580, 380 520 C330 470, 280 450, 220 400"/>
    <path d="M600 520 C520 490, 460 450, 400 400 C340 350, 300 290, 260 250"/>
  </g>
  <g fill="#f0c75e">
    <circle cx="400" cy="440" r="7"/>
    <circle cx="280" cy="300" r="7"/>
    <circle cx="210" cy="190" r="9"/>
    <circle cx="380" cy="520" r="6"/>
    <circle cx="220" cy="400" r="6"/>
    <circle cx="400" cy="400" r="5"/>
    <circle cx="560" cy="640" r="5"/>
  </g>
  <!-- dish / plate mark -->
  <g transform="translate(355, 445)">
    <ellipse cx="45" cy="28" rx="42" ry="18" fill="none" stroke="url(#gold)" stroke-width="3"/>
    <ellipse cx="45" cy="28" rx="28" ry="11" fill="none" stroke="#f0c75e" stroke-width="2" opacity="0.8"/>
    <circle cx="45" cy="28" r="6" fill="#d4af37"/>
  </g>
  <rect x="90" y="820" width="620" height="100" rx="14" fill="#141f35" stroke="#d4af37" stroke-opacity="0.3"/>
  <text x="400" y="860" text-anchor="middle" fill="#f0c75e" font-family="Georgia, serif" font-size="22" font-weight="700" letter-spacing="3">LADIES' SINGLES</text>
  <text x="400" y="895" text-anchor="middle" fill="#ffffff" font-family="Georgia, serif" font-size="28" font-weight="700">Championship Legend Land</text>
</svg>
